<?xml version="1.0" encoding="UTF-8"?>
<svg id="katman_2" data-name="katman 2" xmlns="http://www.w3.org/2000/svg" viewBox="0 0 461.88 146.21">
  <defs>
    <style>
      .cls-1 {
        fill: #28716b;
      }
    </style>
  </defs>
  <g id="katman_1" data-name="katman 1">
    <g>
      <g>
        <path class="cls-1" d="M23.45,117.7l-.44-.19c-11.19-11.5-18.63-25.61-21.45-41.52C.11,67.78.27,60.26.23,52.04c-.02-5.33-.49-11.97-.02-17.12.59-6.42,5.65-11.02,11.19-13.47,9.11-4.03,19.42-7.53,28.84-10.94,8.82-3.19,19.43-7.52,28.35-9.79,4.61-1.17,7.6-.83,12.1.42,12.87,3.57,27.05,9.19,39.61,13.97,5.47,2.08,12.04,4.31,17.23,6.77s9.55,7.72,9.98,13.69c.7,9.78-.3,20.8-.32,30.61-.11.75.06,1.54,0,2.29-3.07,32.98-22.66,54.44-50.74,69.58-9.81,5.29-19.27,10.81-30.56,6.77-14.42-5.17-31.74-16.32-42.43-27.12ZM72.46,9.2c-2.01.24-4.88,1.33-6.91,1.97-16.15,5.08-34.04,11.53-49.65,18.08-3.95,1.66-6.66,3.74-7.12,8.33-.55,5.48-.17,13.38-.04,19.06.41,17.91,3.78,34.01,15.14,48.31,9.96,12.54,26.51,23.56,41.2,29.81,5.47,2.33,8.44,3.58,14.37,1.42,17.33-6.32,38.61-21.25,48.6-36.88,11.99-18.77,11.1-40.27,10.92-61.75-.58-4.06-2.63-6.24-6.26-7.88-7.73-3.49-16.87-6.65-24.89-9.62-9.23-3.42-19.86-7.7-29.27-10.18-2.08-.55-3.9-.93-6.07-.66Z"/>
        <path class="cls-1" d="M66.62,49.23l1.24-14.97c-4.08-2.12-4.13-8.26-1.71-11.64,2.67-3.74,6.99-5.24,11.33-3.46,5.45,2.23,8.84,11.69,2.62,14.82.08,1.19-.06,2.4,0,3.59.12,2.09.49,4.49.65,6.59.13,1.7.06,3.38.35,5.08h5.1c.08,0,.21.23.41.25,2.27.3,5.07.72,6.48,2.72s1.8,5.82-.49,7.37c-.24.16-1.7.83-1.8.83h-7.4l.35,5.08c1.21,12.22,2.55,24.53,3.26,36.85.14,2.38.57,4.69.32,7.2-.66,6.61-6.89,11.36-11.32,15.64-.83.75-2.17.83-3.23.59s-4.46-4.01-5.48-5.05c-5.35-5.45-7.23-7.84-6.92-16.1.52-13.68,2.8-27.39,3.64-41.07.06-1.04-.06-2.1-.01-3.13h-7.07c-.1,0-1.56-.67-1.8-.83-2.52-1.67-2.45-5.65-.52-7.73,1.74-1.86,4.3-1.96,6.59-2.62h5.42ZM75.83,60.4h-3.95c-.07,2.24.09,4.51.01,6.75-.42,11.67-.7,23.46-1.01,35.16-.06,2.2-.36,7.72.84,9.37.45.62,1.2.98,1.96,1.01,3.26.15,3.24-5.47,3.14-7.76-.5-11.1-.76-22.41-1.01-33.51-.08-3.67.08-7.36.01-11.02Z"/>
        <path class="cls-1" d="M119.55,67.63c2.54-.11,6.75-.09,7.22,3.13,1.12,7.61-8.5,14.45-15.44,14.29.78,1.08,2.48,1.35,3.46,2.29,1.91,1.83,1.03,4.64-.5,6.42-1.24,1.44-4.11,3.01-5.91,3.62-3.41,1.16-8.78,1.5-12.07-.1-3.05-1.49-3.35-4.83-3.96-7.87-2.26-11.25-3.84-22.77,6.52-30.47,6.19-4.6,14.71-5.8,20.53-10.7,1.68-1.41,4.16-4.94,6.25-5.25,2.73-.41,3.9.68,4.77,3.1,2.22,6.19-.68,13.7-5.59,17.77l-5.27,3.77Z"/>
        <path class="cls-1" d="M36.38,85.06c-7.04.09-16.56-6.96-15.44-14.62.28-1.9,3.08-2.84,4.76-2.83.81,0,1.47.37,2.29.37.65,0,.53-.02.5-.67-.4-.01-.77-.17-1.1-.38-5.92-3.84-10.23-8.48-10.75-15.88-.16-2.3.77-7.1,3.28-7.92,3.68-1.21,5.68,2.77,8.07,4.79,9.7,8.18,25.46,7.17,28.7,22.91,1.11,5.42-.48,16.99-2.06,22.46-.81,2.83-2.52,4.24-5.35,4.84-4.29.91-10.68-.35-14.2-3.07-2.19-1.69-3.41-3.31-2.98-6.23.22-1.51,3.35-2.66,4.28-3.78Z"/>
      </g>
      <g>
        <path class="cls-1" d="M214.8,61.54c-.77,2.93-2.01,4.01-5.09,4.01s-4.32-1.34-5.04-4.17l-5.5-22.58h-.1l-5.5,22.58c-.67,2.83-1.85,4.17-5.04,4.17s-4.32-1.08-5.09-4.01l-7.25-28.14c-.21-.77-.41-1.59-.41-2.42,0-2.57,2.11-3.81,4.06-3.81,2.16,0,3.45.98,3.96,3.45l4.99,24.59h.1l5.76-24.9c.46-2.06,1.29-3.14,4.42-3.14,3.55,0,4.27,1.7,4.78,4.01l5.61,24.02h.1l5.04-24.59c.51-2.47,1.8-3.45,3.81-3.45s4.06,1.23,4.06,3.81c0,.82-.21,1.65-.41,2.42l-7.25,28.14Z"/>
        <path class="cls-1" d="M234.19,29.75c.72-1.9,2.06-2.57,4.12-2.57h2.01c1.9,0,3.6.46,4.53,3.09l10.18,28.34c.31.82.82,2.32.82,3.24,0,2.06-1.8,3.7-3.96,3.7-1.85,0-3.19-.67-3.81-2.31l-2.16-6.17h-13.58l-2.21,6.17c-.57,1.65-1.75,2.31-3.75,2.31-2.31,0-3.91-1.44-3.91-3.7,0-.93.51-2.42.82-3.24l10.9-28.86ZM239.29,36.33h-.1l-4.99,14.87h9.88l-4.78-14.87Z"/>
        <path class="cls-1" d="M260.23,32.78c0-3.76,1.96-4.94,4.94-4.94h14.04c10.03,0,12.71,5.5,12.71,10.29,0,4.01-2.37,7.97-6.38,8.9v.1c4.32.62,5.09,3.75,5.09,7.51,0,4.27,1.13,5.86,1.13,7.61,0,1.96-2.01,3.29-3.96,3.29-4.63,0-4.99-4.47-4.99-5.97,0-6.48-1.18-9.1-5.81-9.1h-8.33v10.85c0,2.52-1.65,4.22-4.22,4.22s-4.22-1.7-4.22-4.22v-28.55ZM268.66,44.3h8.44c3.19,0,6.38-.82,6.38-4.99s-2.42-4.99-6.12-4.99h-8.69v9.98Z"/>
        <path class="cls-1" d="M298.35,32.78c0-3.76,1.96-4.94,4.94-4.94h14.04c10.03,0,12.71,5.5,12.71,10.29,0,4.01-2.37,7.97-6.38,8.9v.1c4.32.62,5.09,3.75,5.09,7.51,0,4.27,1.13,5.86,1.13,7.61,0,1.96-2.01,3.29-3.96,3.29-4.63,0-4.99-4.47-4.99-5.97,0-6.48-1.18-9.1-5.81-9.1h-8.33v10.85c0,2.52-1.65,4.22-4.22,4.22s-4.22-1.7-4.22-4.22v-28.55ZM306.78,44.3h8.44c3.19,0,6.38-.82,6.38-4.99s-2.42-4.99-6.12-4.99h-8.69v9.98Z"/>
        <path class="cls-1" d="M336.46,31.39c0-2.52,1.65-4.22,4.22-4.22s4.22,1.7,4.22,4.22v29.94c0,2.52-1.65,4.22-4.22,4.22s-4.22-1.7-4.22-4.22v-29.94Z"/>
        <path class="cls-1" d="M369.8,26.97c12.14,0,18.72,8.08,18.72,18.93s-6.07,19.86-18.72,19.86-18.72-8.64-18.72-19.86,6.58-18.93,18.72-18.93ZM369.8,58.96c7.66,0,10.29-5.97,10.29-13.06s-3.39-12.14-10.29-12.14-10.29,5.04-10.29,12.14,2.37,13.06,10.29,13.06Z"/>
        <path class="cls-1" d="M394.7,32.78c0-3.76,1.96-4.94,4.94-4.94h14.04c10.03,0,12.71,5.5,12.71,10.29,0,4.01-2.37,7.97-6.38,8.9v.1c4.32.62,5.09,3.75,5.09,7.51,0,4.27,1.13,5.86,1.13,7.61,0,1.96-2.01,3.29-3.96,3.29-4.63,0-4.99-4.47-4.99-5.97,0-6.48-1.18-9.1-5.81-9.1h-8.33v10.85c0,2.52-1.65,4.22-4.22,4.22s-4.22-1.7-4.22-4.22v-28.55ZM403.13,44.3h8.44c3.19,0,6.38-.82,6.38-4.99s-2.42-4.99-6.12-4.99h-8.69v9.98Z"/>
        <path class="cls-1" d="M452.21,43.43c7.72,1.75,9.67,6.33,9.67,10.65,0,6.69-5.04,11.68-15.23,11.68-10.7,0-15.48-5.35-15.48-9.36,0-2.06,1.49-3.5,3.55-3.5,4.58,0,3.39,6.69,11.93,6.69,4.37,0,6.79-2.42,6.79-4.89,0-1.49-.72-3.14-3.6-3.86l-9.52-2.42c-7.66-1.95-9.05-6.17-9.05-10.13,0-8.23,7.61-11.32,14.76-11.32,6.58,0,14.35,3.7,14.35,8.64,0,2.11-1.8,3.34-3.86,3.34-3.91,0-3.19-5.5-11.06-5.5-3.91,0-6.07,1.8-6.07,4.37s3.09,3.4,5.76,4.01l7.05,1.59Z"/>
        <path class="cls-1" d="M196.28,88.7c12.14,0,18.72,8.08,18.72,18.93s-6.07,19.85-18.72,19.85-18.72-8.64-18.72-19.85,6.58-18.93,18.72-18.93ZM196.28,120.7c7.66,0,10.29-5.97,10.29-13.07s-3.39-12.14-10.29-12.14-10.29,5.04-10.29,12.14,2.37,13.07,10.29,13.07Z"/>
        <path class="cls-1" d="M221.39,94.52c0-3.75,1.95-4.94,4.94-4.94h18.57c2.47,0,4.27.72,4.27,3.4s-1.8,3.39-4.27,3.39h-15.07v8.64h12.76c2.21,0,3.96.62,3.96,3.24s-1.75,3.24-3.96,3.24h-12.76v11.57c0,2.52-1.65,4.22-4.22,4.22s-4.22-1.7-4.22-4.22v-28.55Z"/>
        <path class="cls-1" d="M269.33,94.52c0-3.75,1.96-4.94,4.94-4.94h12.91c7.1,0,12.81,3.5,12.81,11.73,0,6.74-4.68,11.73-12.86,11.73h-9.36v10.03c0,2.52-1.65,4.22-4.22,4.22s-4.22-1.7-4.22-4.22v-28.55ZM277.77,106.55h7.87c3.39,0,5.92-2.06,5.92-5.25,0-3.7-2.62-5.25-6.79-5.25h-7v10.49Z"/>
        <path class="cls-1" d="M305.75,94.52c0-3.75,1.95-4.94,4.94-4.94h19.8c2.47,0,4.27.72,4.27,3.4s-1.8,3.39-4.27,3.39h-16.31v8.02h14.3c2.21,0,3.96.62,3.96,3.24s-1.75,3.24-3.96,3.24h-14.3v8.95h16.72c2.47,0,4.27.72,4.27,3.4s-1.8,3.39-4.27,3.39h-20.21c-2.98,0-4.94-1.18-4.94-4.94v-27.16Z"/>
        <path class="cls-1" d="M349.07,91.48c.72-1.9,2.06-2.57,4.12-2.57h2.01c1.9,0,3.6.46,4.53,3.09l10.18,28.34c.31.82.82,2.31.82,3.24,0,2.06-1.8,3.7-3.96,3.7-1.85,0-3.19-.67-3.81-2.32l-2.16-6.17h-13.58l-2.21,6.17c-.57,1.65-1.75,2.32-3.75,2.32-2.31,0-3.91-1.44-3.91-3.7,0-.93.51-2.42.82-3.24l10.9-28.86ZM354.16,98.06h-.1l-4.99,14.87h9.88l-4.78-14.87Z"/>
        <path class="cls-1" d="M391.09,88.7c9.67,0,14.97,6.07,14.97,9.67,0,2.37-1.29,3.81-3.81,3.81-4.89,0-3.45-6.69-11.16-6.69-5.3,0-9.67,4.58-9.67,12.6,0,6.74,2.67,12.6,9.98,12.6,6.64,0,6.48-7.1,10.54-7.1,2.06,0,4.12,1.18,4.12,3.24,0,5.35-6.48,10.65-14.66,10.65-11.57,0-18.41-6.63-18.41-19.39,0-10.44,6.17-19.39,18.11-19.39Z"/>
        <path class="cls-1" d="M411.52,94.52c0-3.75,1.95-4.94,4.94-4.94h19.8c2.47,0,4.27.72,4.27,3.4s-1.8,3.39-4.27,3.39h-16.31v8.02h14.3c2.21,0,3.96.62,3.96,3.24s-1.75,3.24-3.96,3.24h-14.3v8.95h16.72c2.47,0,4.27.72,4.27,3.4s-1.8,3.39-4.27,3.39h-20.21c-2.98,0-4.94-1.18-4.94-4.94v-27.16Z"/>
      </g>
    </g>
  </g>
</svg>